HIERARCHY
ROOT Hips
{
 OFFSET 0.000000 0.000000 0.000000
 CHANNELS 6 Xposition Yposition Zposition Yrotation Xrotation Zrotation
 JOINT Chest
 {
  OFFSET 0.000000 9.585900 0.002600
  CHANNELS 3 Yrotation Xrotation Zrotation
  JOINT Chest2
  {
   OFFSET 0.000000 9.601200 -0.005300
   CHANNELS 3 Yrotation Xrotation Zrotation
   JOINT Chest3
   {
    OFFSET 0.000000 9.561800 0.000000
    CHANNELS 3 Yrotation Xrotation Zrotation
    JOINT Chest4
    {
     OFFSET 0.000000 9.552100 0.000000
     CHANNELS 3 Yrotation Xrotation Zrotation
     JOINT Neck
     {
      OFFSET 0.000000 14.453000 0.000000
      CHANNELS 3 Yrotation Xrotation Zrotation
      JOINT Head
      {
       OFFSET 0.000000 8.936500 -0.011300
       CHANNELS 3 Yrotation Xrotation Zrotation
       End Site
       {
        OFFSET 0.000000 17.073600 -0.006000
       }
      }
     }
     JOINT RightCollar
     {
      OFFSET -2.921100 9.558500 0.000000
      CHANNELS 3 Yrotation Xrotation Zrotation
      JOINT RightShoulder
      {
       OFFSET -13.519700 0.000000 0.000000
       CHANNELS 3 Yrotation Xrotation Zrotation
       JOINT RightElbow
       {
        OFFSET 0.000000 -29.696600 0.000000
        CHANNELS 3 Yrotation Xrotation Zrotation
        JOINT RightWrist
        {
         OFFSET 0.000000 -24.004700 0.000000
         CHANNELS 3 Yrotation Xrotation Zrotation
         End Site
         {
          OFFSET 0.000000 -17.728500 0.000000
         }
        }
       }
      }
     }
     JOINT LeftCollar
     {
      OFFSET 2.921100 9.558500 0.000000
      CHANNELS 3 Yrotation Xrotation Zrotation
      JOINT LeftShoulder
      {
       OFFSET 13.519700 0.000000 0.000000
       CHANNELS 3 Yrotation Xrotation Zrotation
       JOINT LeftElbow
       {
        OFFSET 0.000000 -29.696600 0.000000
        CHANNELS 3 Yrotation Xrotation Zrotation
        JOINT LeftWrist
        {
         OFFSET 0.000000 -24.004700 0.000000
         CHANNELS 3 Yrotation Xrotation Zrotation
         End Site
         {
          OFFSET 0.000000 -17.728500 0.000000
         }
        }
       }
      }
     }
    }
   }
  }
 }
 JOINT RightHip
 {
  OFFSET -7.771700 -0.012900 -0.001300
  CHANNELS 3 Yrotation Xrotation Zrotation
  JOINT RightKnee
  {
   OFFSET 0.000000 -40.869800 0.001200
   CHANNELS 3 Yrotation Xrotation Zrotation
   JOINT RightAnkle
   {
    OFFSET 0.000000 -39.717900 0.002100
    CHANNELS 3 Yrotation Xrotation Zrotation
    JOINT RightToe
    {
     OFFSET 0.000000 -4.965400 11.033500
     CHANNELS 3 Yrotation Xrotation Zrotation
     End Site
     {
      OFFSET 0.000000 -1.423100 5.872300
     }
    }
   }
  }
 }
 JOINT LeftHip
 {
  OFFSET 7.771700 -0.012900 -0.001300
  CHANNELS 3 Yrotation Xrotation Zrotation
  JOINT LeftKnee
  {
   OFFSET 0.000000 -40.869800 0.001200
   CHANNELS 3 Yrotation Xrotation Zrotation
   JOINT LeftAnkle
   {
    OFFSET 0.000000 -39.717900 0.002100
    CHANNELS 3 Yrotation Xrotation Zrotation
    JOINT LeftToe
    {
     OFFSET 0.000000 -4.965400 11.033500
     CHANNELS 3 Yrotation Xrotation Zrotation
     End Site
     {
      OFFSET 0.000000 -1.423100 5.872300
     }
    }
   }
  }
 }
}
MOTION
Frames: 16
Frame Time: 0.008333
0.000000 85.388000 0.000000 0.000000 -5.767877 0.000000 0.000000 11.653817 0.000000 0.000000 -5.885947 0.000000 0.000000 -0.000000 0.000000 0.000000 -0.000000 0.000000 0.000000 12.528835 0.000000 0.000000 0.711642 0.000000 0.000000 -0.000000 0.000000 0.000000 0.000000 -90.000000 0.000000 -2.309062 0.000000 0.000000 2.309062 0.000000 0.000000 -0.000000 0.000000 0.000000 -0.000000 90.000000 0.000000 -2.309062 0.000000 0.000000 2.309062 0.000000 0.000000 8.520406 0.000000 0.000000 1.905762 0.000000 -0.000000 -4.658285 0.000000 0.000000 -0.000000 0.000000 0.000000 8.520406 0.000000 0.000000 1.905762 0.000000 -0.000000 -4.658285 0.000000 0.000000 -0.000000 0.000000
-47.413462 57.785519 10.775982 179.406801 -41.142535 -3.015863 4.058741 22.202656 2.100761 2.081784 12.717158 1.064303 2.649269 15.900964 1.415323 2.081837 12.731404 1.051299 0.937866 14.629445 1.194971 1.259078 -8.634779 2.005375 3.178242 2.003891 -0.566636 -3.250945 -14.512809 -6.840761 30.686230 -81.043623 1.316034 25.865667 23.692566 -11.854462 -9.444541 -2.373035 1.154273 -0.862840 -12.873964 8.748363 -62.047458 -73.850523 36.603996 -23.674436 11.262435 4.682445 4.014721 -30.204628 -4.906382 -37.543673 74.993709 -42.533865 5.611540 -15.899701 12.650673 0.056493 -0.269652 0.009262 -4.537698 -27.886865 4.351157 88.902081 82.944888 90.168012 0.615001 -22.877138 -16.905652 0.032593 0.104699 -0.001630
-47.412174 57.785521 10.769668 179.415513 -41.125737 -3.041720 4.078554 22.206562 2.099678 2.083593 12.699222 1.078258 2.690653 15.909978 1.358597 2.085009 12.709221 1.091378 0.942471 14.817970 1.195357 1.279274 -8.307842 2.018387 3.139194 2.064073 -0.576550 -3.178053 -14.615166 -6.837002 30.722174 -80.943767 1.254218 25.702140 23.618932 -12.201120 -9.352287 -2.323302 1.283838 -1.100964 -13.073803 8.626090 -62.076970 -73.534985 36.736057 -23.596927 11.354019 4.802169 3.999797 -30.214229 -4.886308 -37.550626 74.989263 -42.536271 5.615567 -15.902795 12.649534 0.053650 -0.267801 0.010852 -4.527064 -27.901219 4.355282 88.977066 82.950145 90.280353 0.622531 -22.896596 -16.912520 0.039003 0.109767 -0.000336
-47.412769 57.783824 10.765603 179.419389 -41.088163 -3.054466 4.093785 22.198371 2.084144 2.098720 12.684741 1.073196 2.706366 15.919651 1.335926 2.112662 12.709095 1.051500 0.955681 14.969299 1.258485 1.312837 -8.011625 2.031879 3.102355 2.115402 -0.535908 -3.134876 -14.722366 -6.805525 30.925923 -80.861221 1.039141 25.511281 23.533055 -12.581749 -9.266853 -2.266300 1.473300 -1.319908 -13.291858 8.499532 -62.151424 -73.233194 36.902409 -23.531230 11.432355 4.909410 3.997961 -30.245785 -4.872906 -37.583425 74.984045 -42.572724 5.606781 -15.909570 12.660519 0.040011 -0.251909 0.011891 -4.496410 -27.934306 4.336360 88.988895 82.948590 90.339012 0.646433 -22.923129 -16.923919 0.033624 0.127892 0.001018
-47.414190 57.783039 10.761708 179.420148 -41.052474 -3.060711 4.100341 22.179951 2.075109 2.126107 12.737549 1.010316 2.709003 15.860618 1.393617 2.120707 12.738403 0.997318 0.983702 15.100576 1.287955 1.361427 -7.756281 2.043195 3.098276 2.171382 -0.536639 -3.094793 -14.810556 -6.784201 31.201522 -80.819666 0.737154 25.288627 23.430815 -12.990713 -9.153546 -2.207591 1.622072 -1.515569 -13.499326 8.367462 -62.303279 -72.952053 37.147799 -23.482051 11.488615 5.006153 4.005725 -30.273959 -4.863152 -37.565269 74.978648 -42.574356 5.619959 -15.911286 12.679343 0.002034 -0.243997 0.012828 -4.490102 -27.967618 4.332564 89.024773 82.951586 90.397225 0.651624 -22.936326 -16.935395 0.040937 0.130965 0.005836
-47.415398 57.782977 10.758983 179.409918 -41.016138 -3.061096 4.114163 22.163679 2.066215 2.128413 12.739691 1.005693 2.716725 15.856538 1.386519 2.111624 12.773219 0.962290 1.019203 15.212515 1.298483 1.424834 -7.548773 2.049791 3.114518 2.227014 -0.563637 -3.053617 -14.872017 -6.775984 31.616051 -80.819044 0.280066 25.029466 23.309106 -13.423213 -9.027873 -2.154771 1.736619 -1.683571 -13.668393 8.232728 -62.543487 -72.699420 37.484904 -23.454286 11.520540 5.099134 4.021376 -30.303835 -4.852575 -37.578014 74.967058 -42.586859 5.618429 -15.917151 12.683333 0.014350 -0.225979 0.018193 -4.444730 -27.990904 4.300121 88.867911 82.942250 90.300853 0.668852 -22.961505 -16.957270 0.050149 0.153805 0.007290
-47.416342 57.783159 10.758391 179.403301 -40.973795 -3.065436 4.126430 22.173344 2.045899 2.131277 12.712467 1.013567 2.706361 15.936668 1.315860 2.126508 12.733084 0.988789 1.059916 15.297643 1.306841 1.498505 -7.391018 2.050526 3.137598 2.270944 -0.600691 -3.039525 -14.911605 -6.745862 32.285156 -80.838615 -0.409225 24.744580 23.173527 -13.878041 -8.953853 -2.166550 1.818962 -1.772752 -13.733384 8.107022 -62.904273 -72.478956 37.936824 -23.439482 11.536061 5.197008 4.056528 -30.337693 -4.835592 -37.655494 74.944495 -42.648242 5.589029 -15.919956 12.685522 0.035071 -0.200470 0.028830 -4.431622 -28.024533 4.292769 88.777590 82.932139 90.230971 0.676659 -22.977364 -16.959775 0.039460 0.170440 0.008138
-47.419708 57.783409 10.760023 179.387973 -40.925225 -3.049640 4.129498 22.184108 2.011587 2.128619 12.769182 0.976641 2.718862 15.910641 1.312068 2.136275 12.719925 0.987285 1.101043 15.357517 1.313342 1.573319 -7.280051 2.047624 3.160796 2.299648 -0.641659 -3.039001 -14.920524 -6.714845 32.988555 -80.883059 -1.116546 24.458096 23.028665 -14.350301 -8.887357 -2.192427 1.893389 -1.826455 -13.742863 7.968323 -63.408160 -72.288080 38.520705 -23.417459 11.540633 5.301595 4.093795 -30.383509 -4.838462 -37.684391 74.934162 -42.680112 5.572504 -15.917772 12.696688 0.032224 -0.192605 0.033608 -4.412063 -28.065992 4.272176 88.681597 82.920895 90.148782 0.680196 -22.989291 -16.956224 0.043383 0.183964 -0.000671
-47.423343 57.783862 10.763852 179.375158 -40.870534 -3.034049 4.127311 22.193213 1.977327 2.137642 12.798833 0.959415 2.729409 15.899771 1.304845 2.141755 12.725176 0.975914 1.138089 15.394802 1.319054 1.640691 -7.210988 2.044701 3.180259 2.306658 -0.674840 -3.051538 -14.894904 -6.688154 33.721120 -80.945651 -1.841563 24.174522 22.876295 -14.826230 -8.802707 -2.187409 1.959315 -1.874577 -13.746642 7.830416 -64.038401 -72.130329 39.210725 -23.386481 11.538683 5.409181 4.125257 -30.436417 -4.845358 -37.689934 74.928119 -42.690279 5.563092 -15.916334 12.707303 0.024090 -0.188097 0.036493 -4.404898 -28.115889 4.254258 88.579035 82.906109 90.051311 0.688202 -22.988393 -16.962421 0.040912 0.190687 0.001334
-47.427035 57.784818 10.769365 179.369882 -40.812407 -3.023087 4.123099 22.208223 1.944719 2.156135 12.807419 0.952529 2.739723 15.908060 1.292319 2.150247 12.731724 0.965705 1.169331 15.413064 1.324629 1.697086 -7.177272 2.043757 3.184285 2.271778 -0.679837 -3.061609 -14.817484 -6.682502 34.539157 -81.021917 -2.653681 23.887589 22.717940 -15.294542 -8.726308 -2.134602 1.993705 -1.901937 -13.766520 7.731038 -64.696481 -72.042977 39.877338 -23.392023 11.553527 5.534253 4.156523 -30.491563 -4.846694 -37.728034 74.915233 -42.735726 5.552038 -15.915244 12.721838 0.021296 -0.183639 0.042930 -4.409258 -28.170854 4.241654 88.463150 82.894050 89.934508 0.689598 -22.982578 -16.961006 0.041403 0.195324 -0.000204
-47.430186 57.786375 10.776259 179.369138 -40.751878 -3.018037 4.148134 22.297802 1.916313 2.161068 12.739717 0.956005 2.752978 15.918097 1.280476 2.161099 12.739696 0.956018 1.195244 15.416806 1.330109 1.743411 -7.170482 2.044586 3.191589 2.245903 -0.688224 -3.091030 -14.739574 -6.660173 35.430821 -81.107279 -3.549226 23.595149 22.551505 -15.757291 -8.723220 -2.155226 2.034713 -1.849086 -13.684462 7.637067 -65.442803 -71.982900 40.616061 -23.399329 11.559012 5.647474 4.181942 -30.548732 -4.841902 -37.747115 74.902857 -42.766239 5.535697 -15.911686 12.736552 0.032431 -0.177456 0.042439 -4.415138 -28.230062 4.237208 88.344491 82.894922 89.819188 0.687124 -22.972402 -16.962754 0.049244 0.194431 0.004773
-47.437012 57.790198 10.781934 179.356356 -40.706691 -2.982240 4.171181 22.327772 1.880562 2.172396 12.748595 0.946289 2.766927 15.929282 1.268819 2.172425 12.748652 0.946367 1.216050 15.411310 1.335053 1.780460 -7.180775 2.046167 3.204703 2.240398 -0.704089 -3.132099 -14.675249 -6.618586 36.361081 -81.196239 -4.494421 23.293886 22.374749 -16.224448 -8.754346 -2.188141 2.060721 -1.769107 -13.568206 7.575126 -66.337221 -71.904516 41.527632 -23.368297 11.532787 5.719424 4.212720 -30.590074 -4.866835 -37.627037 74.903641 -42.687229 5.528709 -15.895967 12.777036 -0.001788 -0.184962 0.029526 -4.414864 -28.269324 4.202153 88.194237 82.885187 89.659778 0.687666 -22.962012 -16.961056 0.051919 0.194277 0.002341
-47.440591 57.792778 10.790788 179.370940 -40.640852 -2.982738 4.186937 22.335839 1.868028 2.182459 12.757562 0.936772 2.779338 15.940535 1.257310 2.182463 12.757627 0.936868 1.232265 15.401800 1.338538 1.809453 -7.198552 2.046682 3.209424 2.222828 -0.704328 -3.154128 -14.593655 -6.590372 37.065074 -81.315968 -5.240569 23.029312 22.204706 -16.678425 -8.794846 -2.214071 2.061070 -1.695824 -13.450389 7.558362 -67.517418 -71.785639 42.743341 -23.242173 11.506118 5.745973 4.226140 -30.650866 -4.864705 -37.671148 74.884520 -42.732585 5.504634 -15.890857 12.781310 0.018401 -0.179893 0.040440 -4.454541 -28.331426 4.192408 88.073315 82.867206 89.519226 0.702085 -22.950936 -16.963221 0.040519 0.198949 0.003619
-47.445515 57.796391 10.799378 179.355529 -40.579646 -2.954316 4.224862 22.347647 1.848565 2.190679 12.765706 0.927655 2.789441 15.950724 1.246187 2.190676 12.765755 0.927730 1.245486 15.392412 1.340239 1.833384 -7.216197 2.045018 3.218118 2.214838 -0.710350 -3.169762 -14.515681 -6.559236 37.769860 -81.434821 -5.998159 22.764294 22.020615 -17.126294 -8.835271 -2.272966 2.080647 -1.637502 -13.304961 7.536691 -68.558987 -71.703597 43.804279 -23.144190 11.493924 5.794847 4.284151 -30.705220 -4.853265 -37.809911 74.845165 -42.865022 5.431476 -15.852391 12.760230 0.084834 -0.197401 0.088216 -4.506166 -28.384073 4.187840 87.945957 82.843633 89.336309 0.723184 -22.978277 -16.971074 0.036899 0.245840 0.002907
-47.450810 57.798291 10.810568 179.360568 -40.496078 -2.936066 4.243347 22.336741 1.824987 2.197510 12.772923 0.919158 2.797759 15.959749 1.235771 2.197501 12.772952 0.919188 1.256685 15.385774 1.341197 1.853793 -7.228730 2.042699 3.232158 2.210745 -0.724299 -3.180500 -14.435914 -6.527779 38.587960 -81.530933 -6.863614 22.478006 21.806270 -17.566744 -8.868988 -2.320576 2.066185 -1.620839 -13.179187 7.558833 -69.365240 -71.657927 44.637740 -23.077748 11.476038 5.860654 4.312203 -30.785845 -4.860228 -37.730044 74.835839 -42.817866 5.387092 -15.824922 12.797732 0.067768 -0.206681 0.079461 -4.534830 -28.464839 4.176989 87.748842 82.818605 89.114509 0.703529 -22.956649 -16.969823 0.046028 0.246752 0.007004
-47.453382 57.804677 10.816862 179.360247 -40.448158 -2.929759 4.273838 22.357961 1.820813 2.185486 12.741889 0.917721 2.818694 16.005280 1.216799 2.203106 12.779010 0.911067 1.265870 15.383054 1.343258 1.850823 -7.279716 2.066232 3.228126 2.162238 -0.711134 -3.160116 -14.310179 -6.533297 39.292230 -81.632185 -7.609343 22.189889 21.562144 -18.013674 -8.896549 -2.354294 2.023356 -1.645574 -13.077250 7.616760 -70.043813 -71.647311 45.358683 -22.989970 11.460824 5.940146 4.325678 -30.831868 -4.858719 -37.679774 74.830975 -42.782252 5.370966 -15.802907 12.810299 0.063183 -0.221929 0.072376 -4.545515 -28.509636 4.176324 87.653403 82.809457 89.008823 0.696921 -22.936741 -16.966676 0.048675 0.235474 0.008029
